# Blender 3.3.1
# www.blender.org
mtllib aple_01.mtl
o Sphere
v 0.245984 0.862850 -0.293153
v 0.454519 0.707107 -0.541675
v 0.593858 0.382683 -0.707733
v 0.642788 0.000000 -0.766044
v 0.593858 -0.382683 -0.707733
v 0.454519 -0.707107 -0.541675
v 0.245984 -0.923880 -0.293153
v 0.376870 0.862850 -0.066452
v 0.696364 0.707107 -0.122788
v 0.909844 0.382683 -0.160430
v 0.984808 0.000000 -0.173648
v 0.909844 -0.382683 -0.160430
v 0.696364 -0.707107 -0.122788
v 0.376870 -0.923880 -0.066452
v 0.331414 0.862850 0.191342
v 0.612372 0.707107 0.353553
v 0.800103 0.382683 0.461940
v 0.866025 0.000000 0.500000
v 0.800103 -0.382683 0.461940
v 0.612372 -0.707107 0.353553
v 0.331414 -0.923880 0.191342
v 0.130885 0.862850 0.359605
v 0.241845 0.707107 0.664463
v 0.315985 0.382683 0.868163
v 0.342020 0.000000 0.939692
v 0.315985 -0.382683 0.868163
v 0.241845 -0.707107 0.664463
v 0.130885 -0.923880 0.359605
v 0.000000 0.630083 0.000000
v -0.130885 0.862850 0.359605
v -0.241845 0.707107 0.664463
v -0.315985 0.382683 0.868163
v -0.342020 0.000000 0.939692
v -0.315985 -0.382683 0.868163
v -0.241845 -0.707107 0.664463
v -0.130885 -0.923880 0.359605
v -0.331414 0.862850 0.191342
v -0.612372 0.707107 0.353553
v -0.800103 0.382683 0.461940
v -0.866025 0.000000 0.500000
v -0.800103 -0.382683 0.461940
v -0.612372 -0.707107 0.353553
v -0.331414 -0.923880 0.191342
v 0.000000 -1.000000 0.000000
v -0.376870 0.862850 -0.066452
v -0.696364 0.707107 -0.122788
v -0.909844 0.382683 -0.160430
v -0.984808 0.000000 -0.173648
v -0.909844 -0.382683 -0.160430
v -0.696364 -0.707107 -0.122788
v -0.376870 -0.923880 -0.066452
v -0.245984 0.862850 -0.293152
v -0.454519 0.707107 -0.541675
v -0.593858 0.382683 -0.707732
v -0.642788 0.000000 -0.766044
v -0.593858 -0.382683 -0.707732
v -0.454519 -0.707107 -0.541675
v -0.245984 -0.923880 -0.293152
v -0.000000 0.862850 -0.382683
v -0.000000 0.707107 -0.707107
v -0.000000 0.382683 -0.923879
v -0.000000 0.000000 -1.000000
v -0.000000 -0.382683 -0.923879
v -0.000000 -0.707107 -0.707107
v -0.000000 -0.923880 -0.382683
v -0.662076 1.430026 0.228996
v -0.578087 1.602343 -0.100325
v -0.781808 1.280322 -0.100325
v 0.001785 0.343524 0.011624
v -0.307998 1.229910 0.174653
v -0.104988 0.987810 0.120310
v -0.035732 0.723448 0.065967
v 0.011900 0.728735 -0.016364
v -0.021140 1.034247 -0.044351
v -0.218310 1.342277 -0.072338
v -0.083363 0.728735 -0.016364
v -0.196978 0.960891 -0.044351
v -0.420143 1.139945 -0.072338
vn -0.0000 -0.9083 -0.4183
vn -0.0000 -0.6863 -0.7273
vn 0.4675 -0.6863 -0.5572
vn 0.2689 -0.9083 -0.3205
vn -0.0000 -0.3684 -0.9297
vn -0.0000 -0.0000 -1.0000
vn 0.6428 -0.0000 -0.7660
vn 0.5976 -0.3684 -0.7122
vn -0.0000 0.3684 -0.9297
vn -0.0000 0.7275 -0.6861
vn 0.4410 0.7275 -0.5256
vn 0.5976 0.3684 -0.7122
vn -0.0000 0.9984 -0.0563
vn -0.0000 1.0000 -0.0000
vn 0.0362 0.9984 -0.0431
vn -0.0000 -1.0000 -0.0000
vn 0.0554 0.9984 -0.0098
vn 0.4120 -0.9083 -0.0726
vn 0.9155 -0.3684 -0.1614
vn 0.7163 -0.6863 -0.1263
vn 0.9155 0.3684 -0.1614
vn 0.9848 -0.0000 -0.1736
vn 0.6757 0.7275 -0.1191
vn 0.8051 -0.3684 0.4648
vn 0.6299 -0.6863 0.3637
vn 0.8051 0.3684 0.4648
vn 0.8660 -0.0000 0.5000
vn 0.0487 0.9984 0.0281
vn 0.5942 0.7275 0.3431
vn 0.3623 -0.9083 0.2092
vn 0.2488 -0.6863 0.6835
vn 0.1431 -0.9083 0.3931
vn 0.3420 -0.0000 0.9397
vn 0.3180 -0.3684 0.8736
vn 0.2347 0.7275 0.6448
vn 0.3180 0.3684 0.8736
vn 0.0192 0.9984 0.0529
vn -0.3420 -0.0000 0.9397
vn -0.3180 -0.3684 0.8736
vn -0.2347 0.7275 0.6448
vn -0.3180 0.3684 0.8736
vn -0.0192 0.9984 0.0529
vn -0.1431 -0.9083 0.3931
vn -0.2488 -0.6863 0.6835
vn -0.3623 -0.9083 0.2092
vn -0.8051 -0.3684 0.4648
vn -0.6299 -0.6863 0.3637
vn -0.8051 0.3684 0.4648
vn -0.8660 -0.0000 0.5000
vn -0.0487 0.9984 0.0281
vn -0.5942 0.7275 0.3431
vn -0.9155 0.3684 -0.1614
vn -0.9848 -0.0000 -0.1736
vn -0.0554 0.9984 -0.0098
vn -0.6757 0.7275 -0.1191
vn -0.7163 -0.6863 -0.1263
vn -0.4120 -0.9083 -0.0726
vn -0.9155 -0.3684 -0.1614
vn -0.4675 -0.6863 -0.5572
vn -0.2689 -0.9083 -0.3205
vn -0.6428 -0.0000 -0.7660
vn -0.5976 -0.3684 -0.7122
vn -0.4410 0.7275 -0.5256
vn -0.5976 0.3684 -0.7122
vn -0.0362 0.9984 -0.0431
vn 0.0701 -0.1533 0.9857
vn 0.0964 -0.9953 0.0008
vn 0.8788 -0.0048 -0.4772
vn -0.4128 0.2279 0.8818
vn -0.0664 0.9015 -0.4276
vn -0.8284 -0.3718 -0.4190
vn -0.7877 -0.3327 -0.5185
vn -0.3857 -0.7464 -0.5423
vn 0.1723 -0.0294 0.9846
vn -0.6123 -0.5646 -0.5535
vn 0.1846 -0.1021 0.9775
vn 0.6648 0.5892 -0.4592
vn 0.8523 0.2683 -0.4490
vt 0.555177 0.637528
vt 0.506872 0.713454
vt 0.441421 0.763357
vt 0.365853 0.788892
vt 0.282858 0.789547
vt 0.195072 0.759896
vt 0.110762 0.683093
vt 0.642347 0.659171
vt 0.642347 0.260956
vt 0.631879 0.794970
vt 0.559551 0.091293
vt 0.550244 0.923073
vt 0.397359 0.000105
vt 0.411321 0.999895
vt 0.225432 0.004015
vt 0.242686 0.999556
vt 0.085659 0.086311
vt 0.085501 0.906363
vt 0.006081 0.219842
vt 0.001296 0.723979
vt 0.000105 0.371408
vt 0.536673 0.310483
vt 0.451421 0.242441
vt 0.361887 0.214767
vt 0.277822 0.217885
vt 0.202069 0.246247
vt 0.137731 0.299626
vt 0.090403 0.384232
vt 0.485390 0.366187
vt 0.414439 0.338310
vt 0.353998 0.328883
vt 0.300059 0.331492
vt 0.248875 0.344619
vt 0.198109 0.370932
vt 0.144575 0.420194
vt 0.599100 0.481164
vt 0.461664 0.417264
vt 0.401152 0.408898
vt 0.353859 0.407175
vt 0.312498 0.409938
vt 0.272223 0.417288
vt 0.229124 0.431660
vt 0.175442 0.460592
vt 0.453880 0.463887
vt 0.399367 0.467778
vt 0.357715 0.470735
vt 0.321322 0.474030
vt 0.285311 0.478647
vt 0.245233 0.486391
vt 0.191047 0.501415
vt 0.062123 0.527670
vt 0.457694 0.508125
vt 0.405733 0.522466
vt 0.365041 0.529745
vt 0.328923 0.534096
vt 0.292699 0.537112
vt 0.251699 0.539939
vt 0.194873 0.542790
vt 0.472881 0.551913
vt 0.420977 0.578379
vt 0.377185 0.591578
vt 0.336844 0.598034
vt 0.295769 0.599962
vt 0.249308 0.597540
vt 0.186820 0.586175
vt 0.502759 0.596019
vt 0.450088 0.640508
vt 0.398456 0.664699
vt 0.347276 0.676151
vt 0.293846 0.677231
vt 0.234577 0.666486
vt 0.162667 0.633120
vt 0.790315 0.566556
vt 0.694382 0.557145
vt 0.874807 0.578960
vt 0.745409 0.526868
vt 0.806221 0.241936
vt 0.810609 0.478680
vt 0.812707 0.404831
vt 0.807991 0.335821
vt 0.763791 0.323524
vt 0.830402 0.330531
vt 0.722271 0.384213
vt 0.857279 0.397536
vt 0.692163 0.460763
vt 0.874807 0.479744
vt 0.783738 0.336688
vt 0.764666 0.403096
vt 0.751069 0.470864
s 1
usemtl Material.001
f 65/72/1 64/71/2 6/6/3 7/7/4
f 63/70/5 62/69/6 4/4/7 5/5/8
f 61/68/9 60/67/10 2/2/11 3/3/12
f 59/66/13 29/36/14 1/1/15
f 44/51/16 65/72/1 7/7/4
f 64/71/2 63/70/5 5/5/8 6/6/3
f 62/69/6 61/68/9 3/3/12 4/4/7
f 60/67/10 59/66/13 1/1/15 2/2/11
f 1/1/15 29/36/14 8/8/17
f 44/51/16 7/7/4 14/20/18
f 6/6/3 5/5/8 12/16/19 13/18/20
f 4/4/7 3/3/12 10/12/21 11/14/22
f 2/2/11 1/1/15 8/8/17 9/10/23
f 7/7/4 6/6/3 13/18/20 14/20/18
f 5/5/8 4/4/7 11/14/22 12/16/19
f 3/3/12 2/2/11 9/10/23 10/12/21
f 13/19/20 12/17/19 19/26/24 20/27/25
f 11/15/22 10/13/21 17/24/26 18/25/27
f 9/11/23 8/9/17 15/22/28 16/23/29
f 14/21/18 13/19/20 20/27/25 21/28/30
f 12/17/19 11/15/22 18/25/27 19/26/24
f 10/13/21 9/11/23 16/23/29 17/24/26
f 8/9/17 29/36/14 15/22/28
f 44/51/16 14/21/18 21/28/30
f 21/28/30 20/27/25 27/34/31 28/35/32
f 19/26/24 18/25/27 25/32/33 26/33/34
f 17/24/26 16/23/29 23/30/35 24/31/36
f 15/22/28 29/36/14 22/29/37
f 44/51/16 21/28/30 28/35/32
f 20/27/25 19/26/24 26/33/34 27/34/31
f 18/25/27 17/24/26 24/31/36 25/32/33
f 16/23/29 15/22/28 22/29/37 23/30/35
f 26/33/34 25/32/33 33/40/38 34/41/39
f 24/31/36 23/30/35 31/38/40 32/39/41
f 22/29/37 29/36/14 30/37/42
f 44/51/16 28/35/32 36/43/43
f 27/34/31 26/33/34 34/41/39 35/42/44
f 25/32/33 24/31/36 32/39/41 33/40/38
f 23/30/35 22/29/37 30/37/42 31/38/40
f 28/35/32 27/34/31 35/42/44 36/43/43
f 44/51/16 36/43/43 43/50/45
f 35/42/44 34/41/39 41/48/46 42/49/47
f 33/40/38 32/39/41 39/46/48 40/47/49
f 31/38/40 30/37/42 37/44/50 38/45/51
f 36/43/43 35/42/44 42/49/47 43/50/45
f 34/41/39 33/40/38 40/47/49 41/48/46
f 32/39/41 31/38/40 38/45/51 39/46/48
f 30/37/42 29/36/14 37/44/50
f 40/47/49 39/46/48 47/54/52 48/55/53
f 38/45/51 37/44/50 45/52/54 46/53/55
f 43/50/45 42/49/47 50/57/56 51/58/57
f 41/48/46 40/47/49 48/55/53 49/56/58
f 39/46/48 38/45/51 46/53/55 47/54/52
f 37/44/50 29/36/14 45/52/54
f 44/51/16 43/50/45 51/58/57
f 42/49/47 41/48/46 49/56/58 50/57/56
f 51/58/57 50/57/56 57/64/59 58/65/60
f 49/56/58 48/55/53 55/62/61 56/63/62
f 47/54/52 46/53/55 53/60/63 54/61/64
f 45/52/54 29/36/14 52/59/65
f 44/51/16 51/58/57 58/65/60
f 50/57/56 49/56/58 56/63/62 57/64/59
f 48/55/53 47/54/52 54/61/64 55/62/61
f 46/53/55 45/52/54 52/59/65 53/60/63
f 54/61/64 53/60/63 60/67/10 61/68/9
f 52/59/65 29/36/14 59/66/13
f 44/51/16 58/65/60 65/72/1
f 57/64/59 56/63/62 63/70/5 64/71/2
f 55/62/61 54/61/64 61/68/9 62/69/6
f 53/60/63 52/59/65 59/66/13 60/67/10
f 58/65/60 57/64/59 64/71/2 65/72/1
f 56/63/62 55/62/61 62/69/6 63/70/5
f 72/80/66 69/77/67 73/82/68
f 66/73/69 67/74/70 68/76/71
f 73/81/68 69/77/67 76/87/72
f 76/87/72 69/77/67 72/80/66
f 68/76/71 78/89/73 70/78/74 66/73/69
f 78/89/73 77/88/75 71/79/76 70/78/74
f 77/88/75 76/87/72 72/80/66 71/79/76
f 67/74/70 75/85/77 78/89/73 68/76/71
f 75/85/77 74/83/78 77/88/75 78/89/73
f 74/83/78 73/81/68 76/87/72 77/88/75
f 66/73/69 70/78/74 75/86/77 67/75/70
f 70/78/74 71/79/76 74/84/78 75/86/77
f 71/79/76 72/80/66 73/82/68 74/84/78
